<!DOCTYPE svg PUBLIC "-//W3C//DTD SVG 20010904//EN" "http://www.w3.org/TR/2001/REC-SVG-20010904/DTD/svg10.dtd">
<svg version="1.0" 
    xmlns="http://www.w3.org/2000/svg" width="1158px" height="293px" viewBox="0 0 11580 2930" preserveAspectRatio="xMidYMid meet">
    <g id="layer101" fill="#ffffff" stroke="none">
        <path d="M140 2857 c-13 -7 -35 -28 -47 -46 -46 -69 -34 -169 106 -856 135 -667 183 -980 202 -1340 13 -246 15 -261 41 -287 16 -16 29 -19 60 -15 109 15 145 140 133 457 -10 276 -35 511 -78 736 l-14 72 41 -14 c276 -98 517 -530 581 -1044 20 -162 29 -180 89 -180 53 0 90 26 107 77 22 68 -11 355 -66 568 -81 310 -259 556 -486 669 -49 25 -105 48 -124 52 -19 3 -35 9 -35 13 0 3 22 37 50 75 27 37 96 147 152 244 160 276 245 377 340 403 48 13 114 -14 147 -59 22 -31 79 -72 100 -72 15 0 14 138 -2 216 -15 70 -38 110 -72 126 -37 17 -105 1 -175 -40 -73 -42 -235 -193 -320 -298 -69 -84 -201 -283 -296 -448 -37 -65 -69 -115 -71 -110 -1 5 -48 220 -103 479 -136 628 -125 586 -155 613 -29 25 -67 28 -105 9z"/>
        <path d="M4737 2536 c-89 -24 -170 -114 -205 -225 -28 -92 -23 -330 12 -501 99 -487 103 -500 184 -500 60 0 109 25 140 73 37 55 34 118 -12 327 -82 365 -107 552 -86 639 15 62 39 80 76 56 53 -35 151 -231 165 -333 37 -264 154 -527 293 -665 109 -107 189 -122 315 -62 111 53 163 94 159 124 -3 22 -10 26 -63 36 -84 15 -125 44 -194 136 -141 187 -209 365 -232 608 -9 95 -9 122 3 150 l13 33 29 -28 c38 -38 104 -138 206 -309 123 -208 177 -284 205 -291 32 -8 104 20 144 56 45 41 42 87 -16 257 -39 117 -46 150 -47 218 0 52 6 98 18 132 9 29 15 57 11 63 -3 5 -30 10 -59 10 -107 0 -196 -98 -227 -249 l-13 -59 -76 116 c-42 65 -92 134 -112 155 -31 33 -41 37 -84 37 -88 0 -184 -73 -236 -178 l-21 -44 -28 52 c-80 146 -156 194 -262 166z"/>
        <path d="M1650 2508 c-166 -100 -212 -297 -137 -588 60 -233 144 -397 261 -513 109 -107 189 -122 315 -62 111 53 163 94 159 124 -3 22 -10 26 -63 36 -84 15 -125 44 -194 136 -141 187 -209 365 -232 608 -9 95 -9 122 3 150 l13 33 29 -28 c38 -38 104 -138 206 -309 123 -208 177 -284 205 -291 32 -8 104 20 144 56 45 41 42 87 -16 257 -39 117 -46 150 -47 218 0 52 6 98 18 132 9 29 15 57 11 63 -3 5 -30 10 -59 10 -107 0 -196 -98 -227 -249 l-13 -59 -76 116 c-42 65 -92 134 -112 155 -32 33 -41 37 -85 37 -37 0 -62 -8 -103 -32z"/>
        <path d="M2625 2515 c-74 -39 -131 -99 -144 -151 -25 -100 -5 -388 41 -574 40 -165 147 -408 202 -460 22 -20 28 -21 58 -11 85 30 138 90 138 156 0 14 -22 91 -50 171 -57 167 -138 486 -117 464 2 -3 21 -48 42 -100 54 -136 178 -381 241 -477 94 -141 246 -263 329 -263 77 1 165 78 165 145 0 38 -62 171 -98 208 -88 93 -238 112 -277 37 -8 -16 -15 -37 -15 -47 -2 -97 -321 597 -384 834 -22 84 -24 88 -52 91 -17 2 -50 -8 -79 -23z"/>
        <path d="M3615 2515 c-74 -39 -131 -99 -144 -151 -25 -100 -5 -388 41 -574 40 -165 147 -408 202 -460 22 -20 28 -21 58 -11 85 30 138 90 138 156 0 14 -22 91 -50 171 -57 167 -138 486 -117 464 2 -3 21 -48 42 -100 54 -136 178 -381 241 -477 94 -141 246 -263 329 -263 77 1 165 78 165 145 0 38 -62 171 -98 208 -88 93 -238 112 -277 37 -8 -16 -15 -37 -15 -47 -2 -97 -321 597 -384 834 -22 84 -24 88 -52 91 -17 2 -50 -8 -79 -23z"/>
        <path d="M6155 2515 c-74 -39 -131 -99 -144 -151 -25 -100 -5 -388 41 -574 40 -165 147 -408 202 -460 22 -20 28 -21 58 -11 85 30 138 90 138 156 0 14 -22 91 -50 171 -57 167 -138 486 -117 464 2 -3 21 -48 42 -100 54 -136 178 -381 241 -477 94 -141 246 -263 329 -263 77 1 165 78 165 145 0 38 -62 171 -98 208 -88 93 -238 112 -277 37 -8 -16 -15 -37 -15 -47 -2 -97 -321 597 -384 834 -22 84 -24 88 -52 91 -17 2 -50 -8 -79 -23z"/>
        <path d="M7145 2515 c-74 -39 -131 -99 -144 -151 -25 -100 -5 -388 41 -574 40 -165 147 -408 202 -460 22 -20 28 -21 58 -11 85 30 138 90 138 156 0 14 -22 91 -50 171 -57 167 -138 486 -117 464 2 -3 21 -48 42 -100 54 -136 178 -381 241 -477 94 -141 246 -263 329 -263 77 1 165 78 165 145 0 38 -62 171 -98 208 -88 93 -238 112 -277 37 -8 -16 -15 -37 -15 -47 -2 -97 -321 597 -384 834 -22 84 -24 88 -52 91 -17 2 -50 -8 -79 -23z"/>
        <path d="M8245 2526 c-88 -28 -154 -77 -206 -153 -46 -66 -70 -146 -76 -253 -20 -343 181 -701 445 -789 137 -47 291 -19 359 63 72 88 84 263 27 386 -43 91 -120 179 -208 238 -103 69 -169 92 -262 92 l-76 0 7 53 c11 92 35 147 84 197 54 56 98 72 165 59 115 -21 235 -146 336 -348 39 -78 40 -82 40 -186 0 -126 12 -210 51 -368 45 -179 74 -227 137 -227 30 0 119 47 136 71 24 34 20 104 -15 274 -39 193 -49 413 -25 551 18 108 65 243 77 223 4 -8 41 -133 83 -279 103 -362 154 -509 241 -685 86 -177 155 -289 270 -440 125 -164 185 -225 221 -225 38 0 54 16 54 53 0 22 -18 46 -88 115 -125 124 -269 336 -387 573 -111 221 -179 410 -255 707 -27 107 -58 213 -70 237 -25 52 -67 75 -139 75 -132 0 -223 -109 -265 -319 l-11 -54 -49 84 c-119 205 -256 290 -464 288 -54 0 -115 -6 -137 -13z m80 -540 c75 -31 204 -180 256 -292 38 -83 55 -181 39 -229 -10 -31 -16 -35 -44 -35 -113 0 -254 247 -301 528 -8 47 -3 50 50 28z"/>
        <path d="M9905 2526 c-88 -28 -154 -77 -206 -153 -46 -66 -70 -146 -76 -253 -20 -343 181 -701 445 -789 137 -47 291 -19 359 63 72 88 84 263 27 386 -43 91 -120 179 -208 238 -103 69 -169 92 -262 92 l-76 0 7 53 c11 92 35 147 84 197 77 80 161 84 266 14 121 -80 251 -286 275 -434 24 -155 63 -352 111 -562 27 -120 49 -221 49 -226 0 -5 -28 -12 -63 -15 -76 -7 -166 -39 -208 -74 -32 -28 -89 -130 -89 -162 0 -19 1 -19 48 -1 70 27 185 48 280 52 l83 3 38 -111 c58 -176 70 -185 168 -140 82 39 99 82 79 198 l-8 47 247 -6 247 -6 -4 24 c-2 20 -24 34 -114 80 -120 60 -167 73 -314 89 -52 6 -98 14 -101 18 -4 4 -37 156 -73 337 -37 182 -80 393 -97 470 -21 99 -32 178 -35 270 -5 135 1 165 38 189 43 27 120 -90 201 -306 36 -94 47 -114 66 -116 27 -4 51 14 51 39 0 36 -53 186 -100 284 -50 104 -112 185 -161 210 -40 21 -122 19 -167 -4 -80 -41 -167 -167 -179 -262 l-6 -40 -47 73 c-80 125 -170 196 -289 232 -66 19 -228 20 -286 2z m80 -540 c75 -31 204 -180 256 -292 38 -83 55 -181 39 -229 -10 -31 -16 -35 -44 -35 -113 0 -254 247 -301 528 -8 47 -3 50 50 28z"/>
        <path d="M4713 1235 c-28 -20 -28 -32 -3 -210 16 -120 23 -143 42 -158 16 -13 31 -17 53 -13 46 9 116 48 138 77 19 26 19 29 2 107 -10 44 -32 109 -49 143 l-31 64 -65 3 c-47 2 -71 -2 -87 -13z"/>
        <path d="M5750 1168 c-76 -14 -104 -40 -95 -93 5 -38 18 -85 35 -130 4 -11 13 -40 20 -65 32 -118 69 -147 143 -112 64 31 117 84 117 118 0 27 -29 123 -40 134 -3 3 -16 27 -30 55 -30 59 -67 105 -83 104 -7 -1 -37 -6 -67 -11z"/>
        <path d="M5394 1155 c-27 -18 -36 -79 -23 -154 5 -31 10 -83 10 -115 0 -76 19 -123 53 -132 49 -12 189 47 201 85 18 58 -37 280 -79 313 -27 22 -132 25 -162 3z"/>
        <path d="M1600 310 l0 -210 156 0 156 0 -4 30 c-4 27 -2 30 24 30 23 0 28 4 28 25 0 21 5 25 30 25 l30 0 0 100 0 100 -30 0 c-25 0 -30 4 -30 25 0 20 -5 25 -25 25 -21 0 -25 5 -25 30 l0 30 -155 0 -155 0 0 -210z m230 110 c0 -27 3 -30 30 -30 l30 0 0 -80 0 -80 -30 0 c-27 0 -30 -3 -30 -30 0 -29 -1 -30 -50 -30 l-50 0 0 140 0 140 50 0 c49 0 50 -1 50 -30z"/>
        <path d="M2090 485 l0 -35 60 0 60 0 0 -140 0 -140 -60 0 -60 0 0 -35 0 -35 180 0 180 0 0 35 0 35 -55 0 -55 0 0 140 0 140 55 0 55 0 0 35 0 35 -180 0 -180 0 0 -35z"/>
        <path d="M2620 495 c0 -21 -5 -25 -30 -25 -27 0 -30 -3 -30 -30 0 -27 -3 -30 -30 -30 l-30 0 0 -100 0 -100 30 0 c25 0 30 -4 30 -25 0 -21 5 -25 30 -25 27 0 30 -3 30 -30 l0 -30 155 0 155 0 0 35 0 35 -120 0 -120 0 0 30 c0 27 -3 30 -30 30 l-30 0 0 80 0 80 30 0 c27 0 30 3 30 30 0 30 1 30 55 30 l55 0 0 -50 c0 -49 -1 -50 -30 -50 -28 0 -30 -3 -30 -35 l0 -35 95 0 95 0 0 120 0 120 -155 0 -155 0 0 -25z"/>
        <path d="M2990 485 l0 -35 60 0 60 0 0 -140 0 -140 -60 0 -60 0 0 -35 0 -35 185 0 185 0 0 35 0 35 -60 0 -60 0 0 140 0 140 60 0 60 0 0 35 0 35 -185 0 -185 0 0 -35z"/>
        <path d="M3500 345 l0 -175 -60 0 -60 0 0 -35 0 -35 185 0 185 0 0 35 0 35 -60 0 -60 0 0 175 0 175 -65 0 -65 0 0 -175z"/>
        <path d="M3860 365 l0 -155 30 0 c25 0 30 -4 30 -25 0 -21 5 -25 30 -25 27 0 30 -3 30 -30 l0 -30 95 0 95 0 0 30 c0 27 3 30 30 30 25 0 30 4 30 25 0 21 5 25 30 25 l30 0 0 155 0 155 -65 0 -65 0 0 -55 0 -55 -85 0 -85 0 0 55 0 55 -65 0 -65 0 0 -155z m300 -85 c0 -49 -1 -50 -30 -50 -27 0 -30 -3 -30 -30 0 -25 -4 -30 -25 -30 -21 0 -25 5 -25 30 0 27 -3 30 -30 30 -29 0 -30 1 -30 50 l0 50 85 0 85 0 0 -50z"/>
        <path d="M4380 393 c0 -71 3 -165 7 -210 l6 -83 63 0 64 0 0 175 0 175 115 0 115 0 0 35 0 35 -185 0 -185 0 0 -127z"/>
        <path d="M4870 365 l0 -155 25 0 c20 0 25 -5 25 -25 0 -22 4 -25 35 -25 32 0 35 -2 35 -30 l0 -30 95 0 95 0 0 30 c0 25 4 30 25 30 20 0 25 5 25 25 0 21 5 25 30 25 l30 0 0 155 0 155 -65 0 -65 0 0 -55 0 -55 -80 0 -80 0 0 55 0 55 -65 0 -65 0 0 -155z m290 -85 c0 -49 -1 -50 -30 -50 -27 0 -30 -3 -30 -30 0 -25 -4 -30 -25 -30 -21 0 -25 5 -25 30 0 25 -4 30 -25 30 -23 0 -25 3 -25 50 l0 50 80 0 80 0 0 -50z"/>
    </g>


</svg>