<!DOCTYPE svg PUBLIC "-//W3C//DTD SVG 20010904//EN" "http://www.w3.org/TR/2001/REC-SVG-20010904/DTD/svg10.dtd">
<svg version="1.0" 
    xmlns="http://www.w3.org/2000/svg" width="1240px" height="401px" viewBox="0 0 12000 3880" preserveAspectRatio="xMidYMid meet">
    <g id="layer101" fill="#ffffff" stroke="none">
        <path d="M638 3304 c-93 -50 -81 -199 81 -969 126 -598 180 -979 181 -1260 0 -152 10 -209 40 -225 50 -27 126 5 162 67 28 46 40 192 33 378 -10 255 -29 426 -82 734 -6 31 -5 33 18 26 83 -26 204 -128 296 -250 124 -165 240 -503 273 -799 14 -118 26 -136 90 -136 52 0 82 20 101 68 14 37 11 136 -11 287 -11 77 -23 160 -26 185 -7 57 -58 217 -94 296 -42 94 -131 221 -212 304 -56 58 -94 86 -163 122 -49 25 -109 52 -132 59 -24 7 -43 14 -43 15 0 2 13 23 29 46 67 99 118 180 184 293 131 225 206 315 293 351 52 22 94 4 164 -67 35 -36 65 -59 78 -59 21 0 22 4 22 83 0 91 -18 183 -44 222 -60 91 -196 41 -386 -142 -123 -119 -231 -258 -338 -436 -42 -70 -94 -156 -114 -190 -21 -34 -38 -59 -38 -55 0 4 -22 108 -50 231 -27 123 -50 232 -50 243 0 10 -26 136 -57 279 -50 230 -60 263 -84 288 -31 31 -77 35 -121 11z"/>
        <path d="M5090 2994 c-30 -8 -66 -23 -80 -33 -43 -31 -87 -97 -111 -168 -21 -59 -24 -86 -24 -213 1 -156 4 -178 81 -530 52 -234 60 -250 131 -250 108 0 182 93 167 210 -4 25 -24 124 -46 220 -77 343 -98 497 -78 579 25 104 67 88 149 -59 57 -102 81 -161 81 -198 0 -16 9 -66 20 -113 11 -46 25 -104 31 -129 45 -193 224 -450 345 -496 68 -26 140 -14 229 36 97 56 127 85 123 118 -3 23 -9 27 -64 37 -33 6 -74 21 -91 33 -65 46 -155 167 -218 291 -80 160 -135 570 -73 546 15 -6 157 -222 238 -360 29 -49 61 -99 70 -110 10 -11 27 -39 39 -63 30 -59 57 -70 124 -49 29 9 67 31 85 47 45 44 43 85 -14 251 -54 155 -62 243 -30 336 9 29 15 57 11 63 -3 5 -32 10 -64 10 -103 0 -165 -59 -212 -202 l-25 -78 -59 92 c-33 51 -79 114 -104 141 -41 44 -47 47 -93 47 -62 0 -149 -40 -183 -84 -13 -17 -32 -50 -43 -73 l-18 -42 -55 82 c-74 111 -134 139 -239 111z"/>
        <path d="M2135 2988 c-47 -17 -80 -44 -120 -97 -87 -119 -101 -273 -46 -484 60 -227 133 -375 239 -488 125 -133 199 -150 342 -78 98 49 150 92 150 124 0 25 -8 29 -75 41 -109 19 -182 95 -284 297 -77 154 -102 239 -121 410 -16 140 1 197 42 146 48 -60 128 -183 181 -278 84 -150 184 -290 212 -297 32 -8 105 21 144 56 45 41 42 87 -15 252 -54 154 -62 243 -30 335 9 29 15 57 11 63 -9 15 -97 12 -136 -4 -37 -16 -89 -66 -110 -106 -7 -14 -22 -56 -34 -94 l-21 -69 -29 49 c-16 27 -38 66 -48 87 -11 21 -43 62 -71 92 -50 53 -54 55 -101 54 -28 0 -63 -5 -80 -11z"/>
        <path d="M3045 2976 c-63 -29 -120 -92 -136 -148 -15 -55 -6 -312 14 -423 43 -231 125 -458 203 -562 33 -44 56 -49 110 -23 88 43 123 129 89 220 -9 25 -20 59 -24 75 -5 17 -29 100 -54 185 -65 227 -68 257 -11 135 25 -55 53 -117 60 -138 48 -129 163 -309 260 -404 120 -119 214 -150 297 -100 79 48 94 106 52 209 -46 113 -107 169 -208 189 -75 15 -113 1 -137 -53 l-17 -39 -21 33 c-30 48 -177 344 -200 403 -60 151 -114 302 -136 376 -23 83 -24 84 -57 86 -19 1 -56 -8 -84 -21z"/>
        <path d="M4015 2983 c-56 -20 -102 -58 -128 -106 -20 -39 -22 -55 -22 -207 1 -186 27 -379 71 -513 36 -109 143 -317 176 -340 l27 -20 55 27 c94 46 126 122 91 216 -60 165 -145 474 -133 486 2 2 19 -36 38 -84 44 -114 137 -301 191 -382 185 -281 358 -362 479 -224 39 45 39 89 0 173 -61 129 -131 183 -241 185 -62 1 -93 -17 -111 -63 l-9 -24 -15 21 c-32 45 -153 295 -216 442 -54 128 -87 224 -144 418 -4 16 -58 14 -109 -5z"/>
        <path d="M6474 2984 c-50 -18 -118 -75 -142 -118 -14 -26 -17 -58 -16 -201 1 -179 14 -278 57 -435 44 -156 149 -376 198 -412 26 -20 27 -20 70 -1 60 27 107 76 115 120 8 42 -1 79 -56 233 -41 115 -100 326 -100 358 0 9 15 -19 34 -63 108 -261 266 -521 367 -605 133 -111 240 -117 323 -20 36 43 34 89 -7 175 -55 115 -139 177 -240 179 -54 1 -61 -2 -88 -32 -16 -18 -29 -39 -29 -48 0 -32 -20 0 -85 134 -148 303 -259 575 -278 682 -12 65 -12 65 -47 67 -19 1 -54 -5 -76 -13z"/>
        <path d="M7431 2983 c-62 -22 -136 -97 -151 -153 -16 -57 -7 -311 14 -429 34 -185 69 -287 159 -464 62 -122 82 -143 120 -131 46 13 116 66 131 98 24 51 21 73 -38 246 -55 159 -112 368 -103 376 2 2 12 -17 22 -43 16 -42 136 -284 220 -441 16 -31 66 -93 110 -137 123 -124 217 -160 304 -115 56 28 91 74 91 119 0 57 -59 170 -115 219 -101 89 -222 94 -263 11 l-20 -40 -20 33 c-82 135 -288 615 -336 781 -22 77 -25 82 -52 84 -16 1 -49 -5 -73 -14z"/>
        <path d="M8478 2985 c-63 -17 -109 -47 -157 -102 -84 -94 -116 -205 -108 -368 9 -176 57 -316 159 -466 71 -106 128 -157 227 -207 73 -36 78 -37 185 -37 99 0 116 3 153 24 121 69 161 282 85 445 -43 92 -106 164 -197 225 -100 67 -168 91 -256 91 l-70 0 7 53 c13 107 74 197 155 231 110 46 274 -82 383 -300 l54 -109 5 -145 c4 -122 11 -168 41 -286 53 -213 71 -244 140 -244 50 0 118 30 140 61 24 35 20 115 -15 279 -36 169 -49 380 -30 497 13 82 58 233 70 233 8 0 11 -8 95 -305 93 -323 106 -365 148 -465 94 -222 240 -472 356 -609 151 -180 163 -191 196 -191 41 0 56 16 56 57 0 29 -13 46 -87 121 -213 212 -453 656 -577 1065 -20 65 -36 129 -36 141 0 38 -48 214 -71 257 -24 48 -66 69 -137 69 -132 0 -210 -82 -258 -271 -9 -35 -17 -65 -18 -67 -2 -1 -27 37 -56 84 -92 152 -162 210 -283 238 -81 19 -233 19 -299 1z m79 -526 c81 -31 200 -165 258 -292 32 -70 48 -156 37 -199 -6 -26 -14 -34 -35 -36 -90 -11 -203 163 -272 418 -25 94 -29 120 -21 120 3 0 17 -5 33 -11z"/>
        <path d="M10088 2985 c-56 -15 -124 -54 -155 -87 -11 -12 -35 -50 -52 -83 -83 -162 -82 -353 4 -591 63 -175 177 -309 321 -381 68 -33 86 -38 168 -41 79 -4 100 -1 144 18 106 46 156 145 150 295 -5 128 -40 200 -151 310 -112 111 -201 157 -323 163 l-84 5 6 51 c13 107 84 214 156 234 50 14 116 -2 171 -41 77 -55 197 -215 242 -324 8 -19 24 -90 35 -156 19 -120 56 -306 107 -542 14 -66 28 -129 30 -141 4 -19 -1 -22 -55 -27 -76 -8 -165 -41 -206 -77 -36 -32 -92 -141 -83 -163 5 -14 12 -13 54 3 68 26 185 48 272 52 l73 3 33 -102 c51 -153 57 -163 108 -163 55 0 117 36 140 80 18 34 18 65 1 147 l-6 32 242 -6 242 -6 -4 24 c-2 19 -23 34 -106 76 -124 62 -176 78 -307 93 -55 6 -102 14 -106 18 -8 10 -46 194 -54 259 -5 47 -25 144 -112 548 -20 91 -26 150 -27 247 -1 119 0 129 21 150 l23 22 27 -20 c34 -25 93 -140 148 -288 37 -102 43 -111 69 -114 33 -4 56 13 56 43 0 71 -122 349 -185 423 -48 56 -82 72 -150 72 -118 0 -207 -83 -255 -239 l-17 -53 -28 48 c-37 64 -129 160 -182 191 -24 14 -69 31 -100 39 -72 17 -232 17 -295 -1z m82 -525 c20 0 130 -102 175 -162 85 -113 136 -256 117 -330 -23 -90 -158 -5 -232 148 -21 43 -83 249 -96 318 -6 35 -5 38 10 33 10 -4 22 -7 26 -7z"/>
        <path d="M5073 1745 c-29 -20 -29 -43 -3 -217 16 -112 23 -136 42 -151 16 -13 31 -17 53 -13 46 9 116 48 137 77 18 24 18 28 3 105 -9 43 -31 108 -48 144 l-32 65 -65 3 c-47 2 -71 -2 -87 -13z"/>
        <path d="M6080 1679 c-59 -10 -100 -40 -100 -73 0 -12 9 -55 20 -96 56 -209 64 -228 104 -238 42 -11 89 7 144 56 l45 41 -6 56 c-9 87 -108 269 -144 264 -4 -1 -33 -5 -63 -10z"/>
        <path d="M5735 1668 c-33 -19 -36 -30 -30 -123 4 -49 8 -120 10 -156 6 -132 50 -154 183 -92 28 13 57 34 64 46 17 33 10 121 -18 210 -34 106 -56 127 -131 127 -32 0 -67 -6 -78 -12z"/>
        <path d="M2060 840 l0 -210 150 0 150 0 0 30 c0 25 4 30 25 30 20 0 25 5 25 25 0 21 5 25 30 25 l30 0 0 100 0 100 -30 0 c-25 0 -30 4 -30 25 0 18 -5 25 -20 25 -16 0 -20 7 -20 30 l0 30 -155 0 -155 0 0 -210z m222 103 c2 -22 9 -29 31 -31 27 -3 27 -4 27 -73 l0 -69 -30 0 c-27 0 -30 -3 -30 -30 0 -29 -2 -30 -45 -30 l-45 0 0 130 0 130 44 0 c41 0 45 -2 48 -27z"/>
        <path d="M2530 1010 l0 -40 60 0 60 0 0 -130 0 -130 -60 0 -60 0 0 -40 0 -40 180 0 180 0 0 40 0 40 -55 0 -55 0 0 130 0 130 55 0 55 0 0 40 0 40 -180 0 -180 0 0 -40z"/>
        <path d="M3040 1025 c0 -20 -5 -25 -25 -25 -21 0 -25 -5 -25 -30 0 -27 -3 -30 -30 -30 l-31 0 3 -97 3 -98 28 -3 c21 -3 27 -9 27 -28 0 -19 5 -24 25 -24 21 0 25 -5 25 -30 l0 -30 155 0 155 0 0 40 0 40 -115 0 -115 0 0 30 c0 27 -3 30 -30 30 l-30 0 0 69 c0 69 0 70 28 73 21 2 28 9 30 31 3 25 6 27 53 27 l49 0 0 -40 c0 -38 -2 -40 -30 -40 -28 0 -30 -2 -30 -40 l0 -40 95 0 95 0 0 120 0 120 -155 0 -155 0 0 -25z"/>
        <path d="M3402 1013 l3 -38 58 -3 57 -3 0 -129 0 -130 -60 0 -60 0 0 -40 0 -40 185 0 185 0 0 40 0 40 -60 0 -60 0 0 130 0 130 60 0 60 0 0 40 0 40 -186 0 -185 0 3 -37z"/>
        <path d="M3900 880 l0 -170 -60 0 -60 0 0 -40 0 -40 185 0 185 0 0 40 0 40 -60 0 -60 0 0 170 0 170 -65 0 -65 0 0 -170z"/>
        <path d="M4242 898 l3 -153 28 -3 c21 -3 27 -9 27 -28 0 -20 5 -24 30 -24 27 0 30 -3 30 -30 l0 -30 95 0 95 0 0 30 c0 27 3 30 30 30 25 0 30 4 30 24 0 19 6 25 28 28 l27 3 3 153 3 152 -71 0 -70 0 0 -55 0 -55 -75 0 -75 0 0 55 0 55 -70 0 -71 0 3 -152z m288 -83 c0 -41 -2 -45 -25 -45 -21 0 -25 -5 -25 -30 0 -23 -5 -30 -19 -30 -14 0 -21 8 -23 28 -2 21 -9 28 -30 30 -26 3 -28 7 -28 48 l0 44 75 0 75 0 0 -45z"/>
        <path d="M4750 932 c0 -66 3 -160 6 -210 l7 -92 63 0 64 0 0 170 0 170 110 0 110 0 0 40 0 40 -180 0 -180 0 0 -118z"/>
        <path d="M5220 895 l0 -155 25 0 c20 0 25 -5 25 -25 0 -22 4 -25 35 -25 32 0 35 -2 35 -30 l0 -30 95 0 95 0 0 30 c0 25 4 30 25 30 20 0 25 5 25 25 0 21 5 25 30 25 l30 0 0 155 0 155 -70 0 -70 0 0 -55 0 -55 -70 0 -70 0 0 55 0 55 -70 0 -70 0 0 -155z m280 -79 c0 -41 -2 -45 -27 -48 -22 -2 -29 -9 -31 -30 -2 -20 -9 -28 -23 -28 -14 0 -19 7 -19 30 0 23 -4 30 -20 30 -17 0 -20 7 -20 45 l0 45 70 0 70 0 0 -44z"/>
    </g>


</svg>