<!DOCTYPE svg PUBLIC "-//W3C//DTD SVG 20010904//EN" "http://www.w3.org/TR/2001/REC-SVG-20010904/DTD/svg10.dtd">
<svg version="1.0" 
    xmlns="http://www.w3.org/2000/svg" width="45px" height="48px" viewBox="0 0 450 480" preserveAspectRatio="xMidYMid meet">
    <g id="layer101" fill="#ffffff" stroke="none">
        <path d="M180 435 c0 -21 -5 -25 -30 -25 -27 0 -30 -3 -30 -30 0 -25 -4 -30 -25 -30 -20 0 -25 -5 -25 -25 0 -18 -5 -25 -20 -25 -16 0 -20 -7 -20 -35 l0 -35 65 0 65 0 0 -100 0 -100 60 0 60 0 0 100 0 100 65 0 65 0 0 35 c0 24 -5 35 -15 35 -9 0 -15 9 -15 25 0 22 -4 25 -35 25 -32 0 -35 2 -35 30 0 25 -4 30 -25 30 -20 0 -25 5 -25 25 0 23 -4 25 -40 25 -36 0 -40 -2 -40 -25z"/>
    </g>


</svg>